# xmcd
#
# Track frame offsets:
#	150
#	17531
#	33672
#	51712
#	66552
#	84305
#	97765
#	111140
#	126832
#	142387
#	156407
#	176620
#	188894
# Disc length: 2729 seconds
# Revision: 1
# Processed by: cddbd v1.5.1PL0 Copyright (c) Steve Scherf et al.
#
# Submitted via: libkcddb 0.21
#
DISCID=bd0aa70d
DTITLE=Willie Mack - Average Guy
DYEAR=2004
DGENRE=Unknown
TTITLE0=We All Can't Be From Texas
TTITLE1=Average Guy
TTITLE2=55
TTITLE3=Working on Ten
TTITLE4=What A Difference A Day Makes
TTITLE5=Too Country
TTITLE6=Why Does Jesus
TTITLE7=I Love Driving
TTITLE8=Legends With Vinyl Souls
TTITLE9=She's So California
TTITLE10=If Forever Ever Ends
TTITLE11=On Again Off Again
TTITLE12=Bird In December
EXTD=
EXTT0=
EXTT1=
EXTT2=
EXTT3=
EXTT4=
EXTT5=
EXTT6=
EXTT7=
EXTT8=
EXTT9=
EXTT10=
EXTT11=
EXTT12=
PLAYORDER=
